<?xml version="1.0" encoding="utf-8"?>
<!-- Generator: Adobe Illustrator 26.0.3, SVG Export Plug-In . SVG Version: 6.00 Build 0)  -->
<svg version="1.1" id="Layer_1" xmlns="http://www.w3.org/2000/svg" xmlns:xlink="http://www.w3.org/1999/xlink" x="0px" y="0px"
	 viewBox="0 0 384 512" style="enable-background:new 0 0 384 512;" xml:space="preserve">
<style type="text/css">
	.st0{fill:#FF3366;}
</style>
<path class="st0" d="M200,88.8c-68.8,0-136.7,45.8-136.7,120c0,47.2,26.5,74,42.6,74c6.6,0,10.5-18.5,10.5-23.7
	c0-6.2-15.9-19.5-15.9-45.4c0-53.9,41-92.1,94.1-92.1c45.6,0,79.4,25.9,79.4,73.6c0,35.6-14.3,102.3-60.5,102.3
	c-16.7,0-31-12.1-31-29.3c0-25.3,17.7-49.9,17.7-76c0-44.4-62.9-36.3-62.9,17.3c0,11.3,1.4,23.7,6.4,34
	c-9.2,39.8-28.1,99.1-28.1,140.1c0,12.7,1.8,25.1,3,37.8c2.3,2.5,1.1,2.3,4.6,1c33.8-46.2,32.6-55.3,47.8-115.8
	c8.2,15.7,29.6,24.1,46.4,24.1c71.2,0,103.1-69.4,103.1-131.9C320.7,132.3,263.2,88.8,200,88.8z"/>
</svg>
