<?xml version="1.0" encoding="utf-8"?>
<!-- Generator: Adobe Illustrator 26.0.3, SVG Export Plug-In . SVG Version: 6.00 Build 0)  -->
<svg version="1.1" id="Capa_1" xmlns="http://www.w3.org/2000/svg" xmlns:xlink="http://www.w3.org/1999/xlink" x="0px" y="0px"
	 viewBox="0 0 800 800" style="enable-background:new 0 0 800 800;" xml:space="preserve">
<style type="text/css">
	.st0{fill:#FFFFFF;}
</style>
<g id="XMLID_51_">
	<path id="XMLID_52_" class="st0" d="M795.8,52.4c-2.4-2.3-5.6-3.4-8.8-3.4c-1.9,0-3.8,0.4-5.7,1.3l-768.6,377
		C4.9,431.2-0.1,439.2,0,448s5.1,16.7,13,20.5L215.6,565l405-332.9L265.8,588.9l252.4,120.2c3.1,1.5,6.5,2.2,9.8,2.2
		c2.9,0,5.7-0.5,8.4-1.6c5.9-2.3,10.5-7,12.9-12.9L799.1,66.7C801.1,61.7,799.8,56,795.8,52.4z"/>
</g>
</svg>
