<svg id="Layer_1" data-name="Layer 1" xmlns="http://www.w3.org/2000/svg" viewBox="0 0 388 388"><defs><style>.cls-1{fill:#f66;}.cls-2{fill:#fff;}</style></defs><circle class="cls-1" cx="194" cy="194" r="194"/><path class="cls-2" d="M225.1,190.7A66.9,66.9,0,1,0,292,257.6,66.83,66.83,0,0,0,225.1,190.7Zm0,110.3a43.5,43.5,0,1,1,43.5-43.5A43.6,43.6,0,0,1,225.1,301Zm85.2-113a15.6,15.6,0,1,1-15.6-15.6A15.62,15.62,0,0,1,310.3,188Zm44.2,15.8c-1-20.9-5.7-39.4-21.1-54.6-15.2-15.2-33.7-20-54.6-21.1-21.5-1.3-86.1-1.3-107.6,0-20.8,1-39.4,5.7-54.6,21s-20,33.7-21.1,54.6c-1.3,21.5-1.3,86.1,0,107.6,1,20.9,5.7,39.4,21.1,54.6s33.7,20,54.6,21.1c21.5,1.3,86.1,1.3,107.6,0,20.9-1,39.4-5.7,54.6-21.1,15.2-15.2,20-33.7,21.1-54.6,1.3-21.5,1.3-85.9,0-107.5ZM326.7,334.4a44.44,44.44,0,0,1-24.8,24.8c-17.1,6.8-57.9,5.3-76.9,5.3s-59.7,1.5-76.9-5.3a44.44,44.44,0,0,1-24.8-24.8c-6.8-17.1-5.3-57.9-5.3-76.9s-1.5-59.7,5.3-76.9a44.44,44.44,0,0,1,24.8-24.8c17.1-6.8,57.9-5.3,76.9-5.3s59.7-1.5,76.9,5.3a44.44,44.44,0,0,1,24.8,24.8c6.8,17.1,5.3,57.9,5.3,76.9S333.5,317.3,326.7,334.4Z" transform="translate(-31 -63.6)"/></svg>