<svg id="Layer_1" data-name="Layer 1" xmlns="http://www.w3.org/2000/svg" viewBox="0 0 392 392"><defs><style>.cls-1{fill:#f66;}.cls-2{fill:#fff;}</style></defs><circle class="cls-1" cx="196" cy="196" r="196"/><path class="cls-2" d="M262.85,113.38c-58.9,0-117,39.2-117,102.7,0,40.4,22.7,63.4,36.5,63.4,5.7,0,9-15.8,9-20.3,0-5.3-13.6-16.7-13.6-38.9,0-46.1,35.1-78.8,80.6-78.8,39,0,68,22.2,68,63,0,30.5-12.2,87.6-51.8,87.6-14.3,0-26.5-10.4-26.5-25.1,0-21.7,15.2-42.7,15.2-65.1,0-38-53.9-31.1-53.9,14.8,0,9.7,1.2,20.3,5.5,29.1-7.9,34.1-24.1,84.8-24.1,119.9,0,10.9,1.5,21.5,2.6,32.4,2,2.1.9,2,3.9.9,28.9-39.6,27.9-47.3,40.9-99.1,7,13.4,25.3,20.6,39.7,20.6,61,0,88.3-59.4,88.3-112.9C366.15,150.68,317,113.38,262.85,113.38Z" transform="translate(-64.1 -51.6)"/></svg>