<?xml version="1.0" encoding="utf-8"?>
<!-- Generator: Adobe Illustrator 26.0.3, SVG Export Plug-In . SVG Version: 6.00 Build 0)  -->
<svg version="1.1" id="Capa_1" xmlns="http://www.w3.org/2000/svg" xmlns:xlink="http://www.w3.org/1999/xlink" x="0px" y="0px"
	 viewBox="0 0 800 800" style="enable-background:new 0 0 800 800;" xml:space="preserve">
<style type="text/css">
	.st0{fill:#FFFFFF;}
</style>
<g id="XMLID_51_">
	<path id="XMLID_52_" class="st0" d="M603.3,211.9c-1.3-1.2-2.9-1.8-4.5-1.8c-1,0-2,0.2-2.9,0.7L201.2,404.4c-4,2-6.6,6.1-6.6,10.6
		c0,4.5,2.6,8.6,6.7,10.5l104,49.6l208-170.9L331.1,487.4l129.6,61.7c1.6,0.8,3.3,1.1,5,1.1c1.5,0,2.9-0.3,4.3-0.8
		c3-1.2,5.4-3.6,6.6-6.6l128.3-323.6C605.9,216.7,605.3,213.8,603.3,211.9z"/>
</g>
</svg>
