<svg id="Layer_1" data-name="Layer 1" xmlns="http://www.w3.org/2000/svg" viewBox="0 0 200 200"><defs><style>.cls-1{fill:#f66;}.cls-2{fill:#fff;}</style></defs><circle class="cls-1" cx="100" cy="100" r="100"/><path class="cls-2" d="M476.38,260.46a23.26,23.26,0,0,1,.22,3.9c0,40.57-30.89,87.2-87.2,87.2a85.83,85.83,0,0,1-47.11-13.85,47.66,47.66,0,0,0,7.46.38A61.79,61.79,0,0,0,387.89,325a30.71,30.71,0,0,1-28.67-21.26,29.23,29.23,0,0,0,5.84.54,31.8,31.8,0,0,0,8.17-1.08,30.81,30.81,0,0,1-24.61-30.13v-.38a30.63,30.63,0,0,0,13.84,3.89,30.56,30.56,0,0,1-9.41-40.94,86.56,86.56,0,0,0,63.29,32.07,31.17,31.17,0,0,1,30-37.75,30,30,0,0,1,22.28,9.73,57.48,57.48,0,0,0,19.48-7.46,30.19,30.19,0,0,1-13.47,16.82,57.54,57.54,0,0,0,17.69-4.81,74.52,74.52,0,0,1-15.91,16.22Z" transform="translate(-317.29 -190.76)"/></svg>