<?xml version="1.0" encoding="utf-8"?>
<!-- Generator: Adobe Illustrator 26.0.3, SVG Export Plug-In . SVG Version: 6.00 Build 0)  -->
<svg version="1.1" id="Layer_1" xmlns="http://www.w3.org/2000/svg" xmlns:xlink="http://www.w3.org/1999/xlink" x="0px" y="0px"
	 viewBox="0 0 448 512" style="enable-background:new 0 0 448 512;" xml:space="preserve">
<style type="text/css">
	.st0{fill:#FFFFFF;}
</style>
<path class="st0" d="M224.1,170.8c-47.1,0-85.1,38-85.1,85.1s38,85.1,85.1,85.1s85.1-38,85.1-85.1S271.2,170.8,224.1,170.8z
	 M224.1,311.2c-30.4,0-55.3-24.8-55.3-55.3s24.8-55.3,55.3-55.3s55.3,24.8,55.3,55.3S254.5,311.2,224.1,311.2L224.1,311.2z
	 M332.5,167.3c0,11-8.9,19.8-19.8,19.8c-11,0-19.8-8.9-19.8-19.8s8.9-19.8,19.8-19.8C323.6,147.5,332.5,156.4,332.5,167.3z
	 M388.8,187.5c-1.3-26.6-7.3-50.1-26.8-69.5c-19.4-19.4-42.9-25.5-69.5-26.8c-27.4-1.6-109.5-1.6-136.9,0
	c-26.5,1.3-50.1,7.3-69.5,26.7s-25.5,42.9-26.8,69.5c-1.6,27.4-1.6,109.5,0,136.9c1.3,26.6,7.3,50.1,26.8,69.5s42.9,25.5,69.5,26.8
	c27.4,1.6,109.5,1.6,136.9,0c26.6-1.3,50.1-7.3,69.5-26.8c19.4-19.4,25.5-42.9,26.8-69.5C390.4,296.9,390.4,214.9,388.8,187.5
	L388.8,187.5z M353.4,353.7c-5.8,14.5-17,25.7-31.5,31.5c-21.8,8.7-73.7,6.7-97.8,6.7s-76,1.9-97.8-6.7c-14.5-5.8-25.7-17-31.5-31.5
	c-8.7-21.8-6.7-73.7-6.7-97.8s-1.9-76,6.7-97.8c5.8-14.5,17-25.7,31.5-31.5c21.8-8.7,73.7-6.7,97.8-6.7s76-1.9,97.8,6.7
	c14.5,5.8,25.7,17,31.5,31.5c8.7,21.8,6.7,73.7,6.7,97.8S362.1,331.9,353.4,353.7z"/>
</svg>
