<svg id="Layer_1" data-name="Layer 1" xmlns="http://www.w3.org/2000/svg" viewBox="0 0 148.99 148.99"><defs><style>.cls-1{fill:#f66;}.cls-2{fill:#fff;}</style></defs><circle class="cls-1" cx="74.49" cy="74.49" r="74.49"/><path class="cls-2" d="M413.38,322.24a28.23,28.23,0,0,0,28.83,3,2.07,2.07,0,0,1,1.51-.06l9,3-1-7.33a2.07,2.07,0,0,1,.75-1.9,21.33,21.33,0,0,0,4.74-5.11,13.18,13.18,0,0,0,2-9.38,20.29,20.29,0,0,0-4.51-9.4c-.45-.57-.94-1.13-1.44-1.67h0a31,31,0,0,0,.95-5,37.59,37.59,0,0,1,3.76,4,24.49,24.49,0,0,1,5.37,11.38,17.28,17.28,0,0,1-2.61,12.24,24.88,24.88,0,0,1-4.73,5.35l1.21,9.33a2.09,2.09,0,0,1-1.64,2.47,2.16,2.16,0,0,1-1.07-.06l-11.46-3.76a33,33,0,0,1-22.55,1.15A33.76,33.76,0,0,1,407,322.24c.49,0,1,.05,1.55.07,1.64.05,3.26,0,4.85-.07Zm19.11-33.77a4.81,4.81,0,1,1-4.79,4.81h0A4.81,4.81,0,0,1,432.49,288.47Zm-31.71,0a4.81,4.81,0,1,1-4.8,4.81h0A4.82,4.82,0,0,1,400.78,288.47Zm15.86,0a4.81,4.81,0,1,1-4.8,4.81h0a4.81,4.81,0,0,1,4.78-4.81Zm1-26.48h0a43.21,43.21,0,0,1,26.61,9.84c6.87,5.9,11,13.92,10.72,22.69h0c-.27,8.76-4.88,16.54-12.11,22a43.3,43.3,0,0,1-27.18,8.27,47.13,47.13,0,0,1-8.46-1,44.92,44.92,0,0,1-7.09-2.15L383,328.4l5.75-13.67a31.86,31.86,0,0,1-7.52-9.58,26.45,26.45,0,0,1-2.92-12.86c.28-8.77,4.88-16.56,12.11-22A43.11,43.11,0,0,1,417.58,262Zm-.13,4.78h0A38.43,38.43,0,0,0,393.27,274c-6.1,4.66-10,11.15-10.2,18.4a21.81,21.81,0,0,0,2.4,10.57,27.79,27.79,0,0,0,7.62,9.14l1.42,1.14-2.74,6.52,8.42-3.32.91.38a38.54,38.54,0,0,0,7.12,2.26,43.23,43.23,0,0,0,7.61.92A38.25,38.25,0,0,0,440,312.77c6.1-4.63,10-11.12,10.21-18.37h0c.25-7.27-3.27-14-9.08-18.94a38.11,38.11,0,0,0-23.64-8.67Z" transform="translate(-346.45 -223.14)"/></svg>