<svg id="Layer_1" data-name="Layer 1" xmlns="http://www.w3.org/2000/svg" viewBox="0 0 148.99 148.99"><defs><style>.cls-1{fill:#f66;}.cls-2{fill:#fff;}</style></defs><circle class="cls-1" cx="74.49" cy="74.49" r="74.49"/><path class="cls-2" d="M447,316.93a12,12,0,0,0-10,5.45L394.31,301.1a12.33,12.33,0,0,0,0-7.78l42.78-21.9a12,12,0,0,0,9.93,5.36,12.34,12.34,0,1,0-12.06-12.34,12.53,12.53,0,0,0,.65,3.95l-42.78,21.9a12,12,0,0,0-9.94-5.35,12.33,12.33,0,0,0,0,24.66,12,12,0,0,0,10-5.46l42.67,21.29a12.39,12.39,0,0,0-.61,3.83A12.06,12.06,0,1,0,447,316.93Zm-8.75-52.49a8.75,8.75,0,1,1,8.75,8.95A8.86,8.86,0,0,1,438.23,264.44Zm-46.62,32.83a8.76,8.76,0,1,1-8.76-8.95A8.86,8.86,0,0,1,391.61,297.27Zm47.5,28.1s0,0,0,0v0a8.74,8.74,0,0,1,7.84-5,9,9,0,1,1-8.75,8.95A9,9,0,0,1,439.11,325.37Z" transform="translate(-346.43 -223.36)"/></svg>