<?xml version="1.0" encoding="utf-8"?>
<!-- Generator: Adobe Illustrator 26.0.3, SVG Export Plug-In . SVG Version: 6.00 Build 0)  -->
<svg version="1.1" id="Layer_1" xmlns="http://www.w3.org/2000/svg" xmlns:xlink="http://www.w3.org/1999/xlink" x="0px" y="0px"
	 viewBox="0 0 512 512" style="enable-background:new 0 0 512 512;" xml:space="preserve">
<style type="text/css">
	.st0{fill:#FFFFFF;}
</style>
<path class="st0" d="M406.5,175c0.5,3.1,0.5,6.5,0.5,9.5c0,99-75.3,212.7-212.7,212.7c-42.4,0-81.7-12.2-115-33.8
	c6,0.9,11.7,0.9,18.2,0.9c35,0,67.1-11.7,93-31.9c-32.9-0.9-60.6-22.1-70-51.8c4.8,0.9,9.1,1.3,14.3,1.3c6.9,0,13.4-0.9,19.9-2.6
	c-34.1-6.9-60.1-37.2-60.1-73.5v-0.9c9.9,5.6,21.6,9.1,33.8,9.5c-20.3-13.4-33.3-36.4-33.3-62.3c0-13.9,3.9-26.8,10.3-37.6
	c36.7,45.4,92.1,75.3,154.4,78.2c-1.3-5.6-1.7-11.3-1.7-17.3c0-41,33.3-74.8,74.8-74.8c21.6,0,41,9.1,54.4,23.8
	c16.8-3.1,33.3-9.5,47.5-18.2c-5.6,17.3-17.3,31.9-32.9,41c15.1-1.7,29.8-5.6,43.2-11.7C433.7,151.1,421.2,164.1,406.5,175
	L406.5,175z"/>
</svg>
